HIERARCHY
ROOT Hips
{
	OFFSET 0.000000 0.000000 0.000000
	CHANNELS 6 Xposition Yposition Zposition Xrotation Yrotation Zrotation
	JOINT LeftUpLeg_virtual
	{
		OFFSET 0.000000 0.000000 0.000000
		CHANNELS 3 Xrotation Yrotation Zrotation
		JOINT LeftUpLeg
		{
			OFFSET 15.427100 -6.655098 0.678600
			CHANNELS 3 Xrotation Yrotation Zrotation
			JOINT LeftLeg
			{
				OFFSET 4.081073 -39.591068 13.024000
				CHANNELS 3 Xrotation Yrotation Zrotation
				JOINT LeftFoot
				{
					OFFSET -4.081074 -37.707932 -15.979700
					CHANNELS 3 Xrotation Yrotation Zrotation
					JOINT LeftToeBase
					{
						OFFSET 5.346399 -15.068900 20.645000
						CHANNELS 3 Xrotation Yrotation Zrotation
						JOINT LeftToe_End
						{
							OFFSET 2.754700 0.931300 11.300900
							CHANNELS 3 Xrotation Yrotation Zrotation
							End Site
							{
								OFFSET 0 0 0
							}
						}
					}
				}
			}
		}
	}
	JOINT RightUpLeg_virtual
	{
		OFFSET 0.000000 0.000000 0.000000
		CHANNELS 3 Xrotation Yrotation Zrotation
		JOINT RightUpLeg
		{
			OFFSET -15.569500 -6.655098 0.678600
			CHANNELS 3 Xrotation Yrotation Zrotation
			JOINT RightLeg
			{
				OFFSET -4.081825 -39.591045 13.023800
				CHANNELS 3 Xrotation Yrotation Zrotation
				JOINT RightFoot
				{
					OFFSET 4.081824 -37.707954 -15.979600
					CHANNELS 3 Xrotation Yrotation Zrotation
					JOINT RightToeBase
					{
						OFFSET -5.346400 -15.068900 20.645000
						CHANNELS 3 Xrotation Yrotation Zrotation
						JOINT RightToe_End
						{
							OFFSET -2.754700 0.931300 11.300900
							CHANNELS 3 Xrotation Yrotation Zrotation
							End Site
							{
								OFFSET 0 0 0
							}
						}
					}
				}
			}
		}
	}
	JOINT Spine_virtual
	{
		OFFSET 0.000000 0.000000 0.000000
		CHANNELS 3 Xrotation Yrotation Zrotation
		JOINT Spine
		{
			OFFSET -0.279200 12.230698 -2.892100
			CHANNELS 3 Xrotation Yrotation Zrotation
			JOINT Spine1
			{
				OFFSET -0.232667 10.192268 -1.242267
				CHANNELS 3 Xrotation Yrotation Zrotation
				JOINT Spine1_split
				{
					OFFSET -0.232667 10.192268 -1.242267
					CHANNELS 3 Xrotation Yrotation Zrotation
					JOINT Spine2
					{
						OFFSET -0.232667 10.192268 -1.242267
						CHANNELS 3 Xrotation Yrotation Zrotation
						JOINT Neck_virtual
						{
							OFFSET 0.000000 0.000000 0.000000
							CHANNELS 3 Xrotation Yrotation Zrotation
							JOINT Neck
							{
								OFFSET -0.418800 17.814194 8.416900
								CHANNELS 3 Xrotation Yrotation Zrotation
								JOINT Head
								{
									OFFSET 0.000000 7.031097 3.806800
									CHANNELS 3 Xrotation Yrotation Zrotation
									JOINT HeadTop_End
									{
										OFFSET 0.000000 24.646606 12.978600
										CHANNELS 3 Xrotation Yrotation Zrotation
										End Site
										{
											OFFSET 0 0 0
										}
									}
								}
							}
						}
						JOINT LeftShoulder_virtual
						{
							OFFSET 0.000000 0.000000 0.000000
							CHANNELS 3 Xrotation Yrotation Zrotation
							JOINT LeftShoulder
							{
								OFFSET 8.476499 7.247704 -3.868750
								CHANNELS 3 Xrotation Yrotation Zrotation
								JOINT LeftShoulder_split
								{
									OFFSET 8.476499 7.247704 -3.868750
									CHANNELS 3 Xrotation Yrotation Zrotation
									JOINT LeftArm
									{
										OFFSET 9.308998 -2.777710 0.208600
										CHANNELS 3 Xrotation Yrotation Zrotation
										JOINT LeftForeArm
										{
											OFFSET 29.972298 0.000000 0.000000
											CHANNELS 3 Xrotation Yrotation Zrotation
											JOINT LeftHand
											{
												OFFSET 26.026505 0.000000 0.000000
												CHANNELS 3 Xrotation Yrotation Zrotation
												End Site
												{
													OFFSET 0 0 0
												}
											}
										}
									}
								}
							}
						}
						JOINT RightShoulder_virtual
						{
							OFFSET 0.000000 0.000000 0.000000
							CHANNELS 3 Xrotation Yrotation Zrotation
							JOINT RightShoulder
							{
								OFFSET -7.570500 7.247704 -3.868750
								CHANNELS 3 Xrotation Yrotation Zrotation
								JOINT RightShoulder_split
								{
									OFFSET -7.570500 7.247704 -3.868750
									CHANNELS 3 Xrotation Yrotation Zrotation
									JOINT RightArm
									{
										OFFSET -9.308998 -2.777710 0.208500
										CHANNELS 3 Xrotation Yrotation Zrotation
										JOINT RightForeArm
										{
											OFFSET -29.972300 0.000000 0.000000
											CHANNELS 3 Xrotation Yrotation Zrotation
											JOINT RightHand
											{
												OFFSET -26.026505 0.000000 0.000000
												CHANNELS 3 Xrotation Yrotation Zrotation
												End Site
												{
													OFFSET 0 0 0
												}
											}
										}
									}
								}
							}
						}
					}
				}
			}
		}
	}
}
MOTION
Frames: 6
Frame Time: 0.03333333
8.009405 10.808830 195.211945 0.000000 0.000000 0.000000 -94.386849 -1.332800 0.530898 -33.683898 -32.772668 39.912750 89.447939 -10.745138 2.553164 8.343550 -6.479251 -18.420650 -6.765336 -0.094640 -0.298577 0.000000 0.000000 0.000000 -97.614878 1.072773 1.735505 -41.434738 8.766329 -30.889862 89.149849 11.518358 -0.607260 2.563132 -0.525803 15.692904 9.466752 0.743425 1.365904 0.000000 0.000000 0.000000 -95.112584 -1.757431 -1.699098 5.031389 -1.195433 2.060119 2.170028 -0.220809 -0.005871 0.598264 -1.157486 -0.121816 0.000000 0.000000 0.000000 0.720771 -0.608990 0.758918 9.997446 -1.643662 1.158139 20.322301 0.048531 0.543887 0.000000 0.000000 0.000000 -0.145819 -0.248125 0.146738 -0.008317 -16.206943 -5.312059 -3.767041 5.525795 -2.057901 66.383408 -21.131601 -39.962764 -0.715154 -39.134990 -0.707525 0.000000 0.000000 0.000000 0.112271 -0.954292 0.261397 -2.069552 4.074670 16.425575 9.347251 6.679934 -3.977352 71.244911 26.100620 22.925457 -0.025065 22.645135 0.155390 0.000000 0.000000 0.000000 
8.250938 10.746639 195.296478 0.000000 0.000000 0.000000 -94.615045 -1.746202 0.337057 -33.731770 -33.183723 38.325779 89.222392 -9.733480 2.776502 7.306697 -5.857605 -17.795634 -6.879800 -0.115300 -0.328512 0.000000 0.000000 0.000000 -97.372119 0.490242 1.329160 -41.213396 7.754768 -31.352426 88.116120 11.008602 -0.856402 0.867287 -0.759307 16.959582 9.678831 0.846343 1.121533 0.000000 0.000000 0.000000 -95.106921 -2.043766 -1.992052 5.490792 -1.211906 1.736084 2.352383 -0.208655 0.016958 0.549579 -0.992672 -0.061964 0.000000 0.000000 0.000000 0.894500 -0.576135 0.724904 10.719871 -2.275132 1.212815 22.084018 -0.922332 0.614468 0.000000 0.000000 0.000000 -0.057743 -0.211967 0.219927 0.122168 -16.444490 -5.624511 -3.079018 5.987619 -2.220031 65.798491 -20.371456 -40.222714 -1.188044 -40.119486 -1.026606 0.000000 0.000000 0.000000 0.203259 -0.936780 0.229671 -2.329349 3.673552 16.951162 9.854084 6.613022 -3.984061 69.586548 25.245580 23.018385 -0.151610 22.835170 0.415550 0.000000 0.000000 0.000000 
8.498364 10.652470 195.439011 0.000000 0.000000 0.000000 -94.713625 -2.399993 -0.133298 -33.648650 -33.072507 37.241350 88.938106 -8.619448 2.911986 6.204830 -5.256248 -17.200237 -7.444588 -0.152122 -0.312552 0.000000 0.000000 0.000000 -97.100708 -0.095836 0.872850 -40.775953 6.355469 -32.005952 86.929436 10.551211 -0.959708 -1.042003 -0.855953 18.302334 9.732380 0.897687 0.781142 0.000000 0.000000 0.000000 -95.205160 -2.380577 -2.352252 6.104558 -1.272658 1.379468 2.641185 -0.224572 0.046004 0.694836 -1.035963 -0.137925 0.000000 0.000000 0.000000 1.101118 -0.580240 0.698053 11.581597 -2.764859 1.131792 23.630281 -1.756699 0.571172 0.000000 0.000000 0.000000 0.123649 -0.228706 0.262566 0.306927 -16.278349 -5.908004 -2.264239 6.173290 -2.302117 65.086095 -19.453270 -39.992899 -2.005456 -40.564637 -1.526628 0.000000 0.000000 0.000000 0.380276 -0.954521 0.182991 -2.556400 3.370927 17.304399 10.342451 6.598774 -4.022186 67.409015 24.416461 23.585651 -0.338829 23.266614 0.655667 0.000000 0.000000 0.000000 
8.709105 10.586784 195.528870 0.000000 0.000000 0.000000 -94.645528 -3.165946 -0.819557 -33.767946 -32.616332 36.626934 88.846302 -7.707004 3.032939 5.610082 -5.059118 -16.878953 -8.238481 -0.219123 -0.219165 0.000000 0.000000 0.000000 -96.836995 -0.623554 0.374663 -40.071204 4.657351 -32.724468 85.441445 10.164805 -0.958143 -2.899750 -0.838055 19.787135 9.354530 0.887586 0.370177 0.000000 0.000000 0.000000 -95.303153 -2.713441 -2.743511 6.785626 -1.375659 1.067401 3.027941 -0.247622 0.084999 0.822083 -1.222912 -0.194110 0.000000 0.000000 0.000000 1.360668 -0.616046 0.690280 12.559857 -3.120020 0.931681 24.930776 -2.409247 0.451082 0.000000 0.000000 0.000000 0.400979 -0.278205 0.286183 0.543311 -15.643141 -6.302463 -1.380929 6.049207 -2.211295 64.120026 -18.449967 -39.168922 -2.934564 -40.620812 -2.031138 0.000000 0.000000 0.000000 0.669506 -0.994631 0.146803 -2.768828 3.319351 17.656340 10.663915 6.690888 -4.102424 65.017739 23.693807 24.484510 -0.514536 23.670476 0.831037 0.000000 0.000000 0.000000 
8.876468 10.627213 195.480881 0.000000 0.000000 0.000000 -94.446824 -3.799600 -1.536518 -34.387885 -31.975937 36.151696 89.069847 -7.070279 3.121439 5.630974 -5.210478 -16.690914 -8.826495 -0.294634 -0.128012 0.000000 0.000000 0.000000 -96.624405 -1.041580 -0.153893 -39.026058 2.755236 -33.362059 83.458963 9.828453 -0.927873 -4.594977 -0.809717 21.256199 8.835423 0.829290 -0.052851 0.000000 0.000000 0.000000 -95.269480 -3.017559 -3.180777 7.420245 -1.496326 0.887951 3.466322 -0.259911 0.133205 0.859630 -1.462713 -0.380620 0.000000 0.000000 0.000000 1.682177 -0.676515 0.688965 13.571547 -3.337763 0.650494 25.983880 -2.915409 0.321860 0.000000 0.000000 0.000000 0.752790 -0.336024 0.298259 0.823922 -14.420548 -6.951247 -0.414296 5.572464 -1.973711 62.995286 -17.496387 -37.730477 -3.748752 -40.710673 -2.418137 0.000000 0.000000 0.000000 1.069091 -1.052662 0.128221 -2.984005 3.607106 18.115552 10.700016 6.840108 -4.092373 62.655067 23.100729 25.417907 -0.643378 23.789252 0.932770 0.000000 0.000000 0.000000 
9.059644 10.778801 195.309464 0.000000 0.000000 0.000000 -94.112043 -4.157444 -2.128443 -35.600141 -31.422439 35.503682 89.629840 -6.606395 3.237809 6.191475 -5.577429 -16.633223 -8.897461 -0.338951 -0.151005 0.000000 0.000000 0.000000 -96.334614 -1.276259 -0.662028 -37.627167 0.778305 -33.804915 80.915359 9.449074 -0.831691 -6.213471 -0.906969 22.417185 8.579892 0.740357 -0.390839 0.000000 0.000000 0.000000 -95.060210 -3.292882 -3.677922 7.956142 -1.615838 0.895372 3.930837 -0.259702 0.177211 0.754790 -1.621882 -0.450658 0.000000 0.000000 0.000000 2.071606 -0.750879 0.691078 14.510754 -3.443213 0.345956 26.903048 -3.269165 0.218528 0.000000 0.000000 0.000000 1.168553 -0.391170 0.294158 1.160797 -12.606921 -7.926388 0.541344 4.824278 -1.615516 61.754541 -16.751797 -35.744658 -4.350909 -40.964145 -2.667598 0.000000 0.000000 0.000000 1.566522 -1.112529 0.118384 -3.208865 4.193355 18.695963 10.438836 7.002941 -4.056510 60.480990 22.561216 26.087773 -0.722779 23.633600 0.970732 0.000000 0.000000 0.000000 
